#!OML:ASF Y:\EmotionMaleHayes\Project 1\Capture day 1\Session 1\Male1.ASF
:FULLY-SPECIFIED
:DEGREES
129
root -10.7553 15.2097 0.488862 122.407 70.5143 113.597
lowerback 14.1177 -2.82418 -19.8289
upperback 5.72935 -5.8302 -1.50171
thorax 0.337177 -3.10992 10.1498
lowerneck -27.2839 3.41362 4.65832
upperneck 13.3061 2.81292 0.592229
head 8.59985 1.66585 -0.112269
rclavicle 5.26779e-014 2.82274e-014
rhumerus -63.5525 33.4963 -63.9186
rradius 65.5116
rwrist -7.98439
rhand -10.1175 -23.6257
rfingers 7.12502
rthumb 15.8705 -52.9953
lclavicle 5.26779e-014 2.82274e-014
lhumerus 18.2951 -26.3906 57.4901
lradius 76.5891
lwrist 15.9507
lhand -40.5663 -31.8012
lfingers 7.12502
lthumb -13.5137 -2.25968
rfemur -54.4337 -11.5414 -2.34845
rtibia 44.8918
rfoot -7.4082 -2.77618
rtoes 21.1112
lfemur 27.4838 -1.80246 -37.2332
ltibia 5.55755
lfoot -19.2756 -11.0333
ltoes -11.7054
130
root -10.4243 15.217 0.473581 124.173 71.7217 115.759
lowerback 14.4571 -2.81706 -18.1961
upperback 5.57772 -5.73627 -0.961567
thorax -0.200368 -3.00561 9.89842
lowerneck -27.079 3.36089 4.59403
upperneck 13.5806 2.81854 0.334047
head 8.6657 1.63489 -0.191741
rclavicle 5.84427e-014 -1.39149e-014
rhumerus -62.7811 32.1313 -62.5446
rradius 65.2027
rwrist -7.57691
rhand -10.4656 -23.5361
rfingers 7.12502
rthumb 15.5352 -52.932
lclavicle 5.84427e-014 -1.39149e-014
lhumerus 16.6854 -26.6288 58.0221
lradius 78.6145
lwrist 15.2082
lhand -40.7596 -31.9835
lfingers 7.12502
lthumb -13.7 -2.45443
rfemur -53.9921 -10.7337 -0.805976
rtibia 46.6576
rfoot -9.77798 -3.56001
rtoes 16.1617
lfemur 28.4723 -3.13721 -36.5357
ltibia 6.50758
lfoot -17.8104 -8.99765
ltoes -14.5053
131
root -10.0825 15.2383 0.465187 127.018 72.9646 119.088
lowerback 14.8085 -2.89382 -16.4081
upperback 5.43609 -5.70474 -0.405596
thorax -0.721412 -2.9355 9.56992
lowerneck -26.5362 3.33939 4.66442
upperneck 13.6374 2.84167 0.0745892
head 8.60444 1.61814 -0.296024
rclavicle -2.50469e-014 6.36111e-015
rhumerus -61.8521 30.5454 -61.3418
rradius 64.7666
rwrist -6.90561
rhand -10.6864 -23.4478
rfingers 7.12502
rthumb 15.3226 -52.8601
lclavicle -2.50469e-014 6.36111e-015
lhumerus 14.8236 -27.0618 58.6676
lradius 80.6439
lwrist 15.2985
lhand -40.2817 -32.4476
lfingers 7.12502
lthumb -13.2393 -2.88804
rfemur -53.1577 -10.0129 0.959869
rtibia 47.8033
rfoot -12.1236 -5.85297
rtoes 0.650489
lfemur 29.3398 -4.36075 -35.3757
ltibia 7.84994
lfoot -15.6989 -7.55421
ltoes -14.3023
132
root -9.75135 15.2728 0.45089 128.069 74.3938 120.448
lowerback 14.9589 -2.7822 -14.8593
upperback 5.31166 -5.40092 0.0187727
thorax -1.16382 -2.7416 9.16978
lowerneck -26.0369 3.30975 4.78888
upperneck 13.5242 2.82919 -0.14923
head 8.49037 1.59175 -0.401753
rclavicle -4.9895e-014 -2.34566e-014
rhumerus -60.4855 28.7496 -60.2877
rradius 63.8555
rwrist -6.00751
rhand -11.2221 -23.0769
rfingers 7.12502
rthumb 14.8066 -52.5279
lclavicle -4.9895e-014 -2.34566e-014
lhumerus 12.8139 -27.7993 59.3666
lradius 82.5981
lwrist 15.5403
lhand -39.9181 -32.5731
lfingers 7.12502
lthumb -12.8889 -2.99108
rfemur -52.7002 -9.03058 2.80634
rtibia 49.006
rfoot -10.8065 -7.32708
rtoes 0.375787
lfemur 29.6833 -4.95316 -34.4719
ltibia 9.62224
lfoot -13.2991 -6.18246
ltoes -12.6131
133
root -9.41747 15.3189 0.441756 128.861 75.5303 121.368
lowerback 14.3594 -2.77408 -13.689
upperback 5.53051 -5.11992 0.265058
thorax -0.781303 -2.63594 8.69468
lowerneck -25.7572 3.3852 5.02977
upperneck 13.2366 2.89741 -0.307603
head 8.35425 1.61704 -0.489234
rclavicle -3.37934e-014 -2.94201e-014
rhumerus -58.4019 26.3854 -59.3291
rradius 62.746
rwrist -5.17586
rhand -11.9713 -22.59
rfingers 7.12502
rthumb 14.0846 -52.0927
lclavicle -3.37934e-014 -2.94201e-014
lhumerus 10.8282 -28.5501 59.9632
lradius 84.4867
lwrist 15.4453
lhand -39.85 -32.3514
lfingers 7.12502
lthumb -12.8232 -2.76528
rfemur -52.031 -8.21467 4.33125
rtibia 49.8656
rfoot -11.5661 -6.15492
rtoes 2.30479
lfemur 29.4487 -5.26888 -33.6887
ltibia 11.9081
lfoot -10.4934 -4.69245
ltoes -12.677
134
root -9.0603 15.3991 0.449087 132.948 75.575 126.112
lowerback 14.8874 -3.07302 -12.8092
upperback 5.45206 -5.47033 0.561621
thorax -1.13356 -2.77491 8.61133
lowerneck -25.2519 3.42555 5.09431
upperneck 13.3457 2.98665 -0.465087
head 8.31676 1.64526 -0.546224
rclavicle 2.06736e-014 -2.0276e-014
rhumerus -56.7263 24.0429 -58.5855
rradius 61.6199
rwrist -4.28106
rhand -12.386 -22.5424
rfingers 7.12502
rthumb 13.685 -52.0725
lclavicle 2.06736e-014 -2.0276e-014
lhumerus 7.75877 -29.6028 61.4453
lradius 86.215
lwrist 15.0558
lhand -39.7494 -32.6528
lfingers 7.12502
lthumb -12.7262 -3.06064
rfemur -49.2784 -8.35736 5.16524
rtibia 49.2346
rfoot -12.5423 -6.309
rtoes 2.72637
lfemur 29.2529 -6.06142 -32.6316
ltibia 14.9509
lfoot -6.97581 -3.97784
ltoes -10.6368
135
root -8.74657 15.4656 0.443552 130.554 76.8319 123.696
lowerback 14.2986 -2.71374 -12.4906
upperback 5.66957 -4.8586 0.778615
thorax -0.739473 -2.51061 8.54285
lowerneck -25.4053 3.50704 5.36014
upperneck 13.3046 3.06065 -0.802169
head 8.33898 1.65607 -0.691199
rclavicle -2.34566e-014 3.85642e-014
rhumerus -53.9367 20.9826 -57.6639
rradius 60.0167
rwrist -2.95346
rhand -12.3921 -22.805
rfingers 7.12502
rthumb 13.6792 -52.3355
lclavicle -2.34566e-014 3.85642e-014
lhumerus 5.52838 -30.2776 62.7961
lradius 87.3074
lwrist 14.6993
lhand -39.5568 -33.5724
lfingers 7.12502
lthumb -12.5406 -3.96873
rfemur -48.2981 -7.00789 6.3485
rtibia 49.3507
rfoot -13.4943 -6.11056
rtoes -0.00902929
lfemur 27.9321 -5.23397 -31.9822
ltibia 18.2716
lfoot -3.54231 -2.50391
ltoes -8.32455
136
root -8.43415 15.5453 0.444779 129.377 77.8207 122.609
lowerback 14.4178 -2.49925 -12.0694
upperback 5.59317 -4.54657 1.03843
thorax -0.979263 -2.33823 8.56764
lowerneck -25.7933 3.61071 5.44827
upperneck 13.7235 3.17955 -0.995601
head 8.55413 1.69674 -0.747622
rclavicle 8.74653e-015 2.46493e-014
rhumerus -51.3227 17.9416 -57.0149
rradius 58.2774
rwrist -1.21212
rhand -12.4151 -23.0803
rfingers 7.12502
rthumb 13.657 -52.6122
lclavicle 8.74653e-015 2.46493e-014
lhumerus 2.58481 -30.9314 64.6946
lradius 88.002
lwrist 14.4219
lhand -39.2665 -34.4736
lfingers 7.12502
lthumb -12.2606 -4.85305
rfemur -46.9925 -5.92866 7.45677
rtibia 49.5661
rfoot -14.7039 -5.83593
rtoes -3.00004
lfemur 26.2961 -4.31212 -30.887
ltibia 22.0822
lfoot 0.302094 -1.18998
ltoes -7.90292
137
root -8.11467 15.6386 0.452443 129.943 78.2531 123.405
lowerback 14.4021 -2.40578 -11.7608
upperback 5.47456 -4.39526 1.2206
thorax -1.14913 -2.24966 8.57887
lowerneck -25.0822 3.55798 5.51867
upperneck 13.6863 3.16097 -1.1672
head 8.43033 1.67347 -0.829124
rclavicle -2.18663e-014 1.35174e-014
rhumerus -49.0465 14.3695 -56.5773
rradius 56.1662
rwrist 0.514779
rhand -12.9793 -22.5933
rfingers 7.12502
rthumb 13.1132 -52.161
lclavicle -2.18663e-014 1.35174e-014
lhumerus -0.587646 -32.0741 66.8393
lradius 88.3344
lwrist 14.2711
lhand -38.9634 -34.9287
lfingers 7.12502
lthumb -11.9684 -5.29086
rfemur -44.6334 -5.11457 7.99384
rtibia 48.2938
rfoot -15.4357 -5.86776
rtoes -3.77829
lfemur 24.5844 -3.9704 -30.0788
ltibia 26.0845
lfoot 3.43983 -0.668332
ltoes -7.48584
138
root -7.79795 15.7414 0.461325 132.037 78.7567 125.744
lowerback 14.9107 -2.27422 -11.0282
upperback 5.05052 -4.22471 1.40769
thorax -1.97358 -2.09503 8.40265
lowerneck -24.408 3.38572 5.52553
upperneck 13.9051 2.98451 -1.26243
head 8.39212 1.58329 -0.895091
rclavicle 3.4191e-014 -1.27222e-014
rhumerus -47.2832 10.3991 -56.2395
rradius 53.7289
rwrist 2.11726
rhand -13.8853 -21.4134
rfingers 7.12502
rthumb 12.2397 -51.0352
lclavicle 3.4191e-014 -1.27222e-014
lhumerus -3.98517 -33.6438 69.3012
lradius 88.1344
lwrist 14.0791
lhand -38.54 -34.8737
lfingers 7.12502
lthumb -11.5601 -5.21248
rfemur -42.2718 -4.3692 8.80946
rtibia 47.1252
rfoot -16.4896 -5.93546
rtoes -2.18379
lfemur 22.8353 -4.03914 -29.2679
ltibia 29.8828
lfoot 6.4504 -0.0246407
ltoes -4.82295
